# xmcd
#
# Track frame offsets: 
#        182
#        15975
#        32050
#        47927
#        61492
#        79867
#        99267
#        114670
#        131072
#        147260
#
# Disc length: 2144 seconds
#
# Revision: 2
# Processed by: cddbd v1.5.2PL0 Copyright (c) Steve Scherf et al.
# Submitted via: ExactAudioCopy v0.99pb5
#
DISCID=83085e0a
DTITLE=Lisa Brokop - Every Little Girl's Dream
DYEAR=1994
DGENRE=Country
TTITLE0=Take That
TTITLE1=One of Those Nights
TTITLE2=You Already Drove Me There
TTITLE3=Give Me A Ring Sometime
TTITLE4=Every Little Girl's Dream
TTITLE5=Never Did Say Goodbye
TTITLE6=Who Needs You
TTITLE7=Not Here In My Arms
TTITLE8=Let Me Live Another Day
TTITLE9=Never Gonna Be Your Fool Again
EXTD=
EXTT0=
EXTT1=
EXTT2=
EXTT3=
EXTT4=
EXTT5=
EXTT6=
EXTT7=
EXTT8=
EXTT9=
PLAYORDER=
